Coordinates
version=1
nRows=8
nColumns=63
inDegrees=yes

Units are S.I. units (second, meters, Newtons, ...)
If the header above contains a line with 'inDegrees', this indicates whether rotational values are in degrees (yes) or radians (no).

endheader
time	pelvis_tilt	pelvis_list	pelvis_rotation	pelvis_tx	pelvis_ty	pelvis_tz	hip_flexion_r	hip_adduction_r	hip_rotation_r	knee_angle_r	knee_angle_r_beta	ankle_angle_r	subtalar_angle_r	mtp_angle_r	hip_flexion_l	hip_adduction_l	hip_rotation_l	knee_angle_l	knee_angle_l_beta	ankle_angle_l	subtalar_angle_l	mtp_angle_l	L5_S1_Flex_Ext	L5_S1_Lat_Bending	L5_S1_axial_rotation	L4_L5_Flex_Ext	L4_L5_Lat_Bending	L4_L5_axial_rotation	L3_L4_Flex_Ext	L3_L4_Lat_Bending	L3_L4_axial_rotation	L2_L3_Flex_Ext	L2_L3_Lat_Bending	L2_L3_axial_rotation	L1_L2_Flex_Ext	L1_L2_Lat_Bending	L1_L2_axial_rotation	L1_T12_Flex_Ext	L1_T12_Lat_Bending	L1_T12_axial_rotation	Abs_r3	Abs_r2	Abs_r1	Abs_t1	Abs_t2	neck_flexion	neck_bending	neck_rotation	arm_flex_r	arm_add_r	arm_rot_r	elbow_flex_r	pro_sup_r	wrist_flex_r	wrist_dev_r	arm_flex_l	arm_add_l	arm_rot_l	elbow_flex_l	pro_sup_l	wrist_flex_l	wrist_dev_l
      0.00000000	      2.36292417	     -2.45836514	    101.56162836	      0.43006797	      0.75956312	      1.07357290	      3.30171672	      2.64407144	     -7.64117218	     12.28940015	      0.21449050	     30.50959977	     -2.56324360	      0.00000000	      8.40149015	     -6.35733244	      2.95475264	     16.84263821	      0.29395949	     38.13584863	     17.24189784	      0.00000000	      0.22882936	      0.13783253	      0.14094020	      0.42495900	      0.18331727	      0.14974896	      0.37594375	      0.33512602	      0.14974896	      0.26152907	      0.33512602	      0.12332267	      0.21249094	      0.28106810	      0.11451391	      0.13075309	      0.21350259	      0.10570515	      1.63450521	      1.55918917	      0.78386710	      0.00000000	      0.00000000	     28.11948422	     -1.65640681	     -2.14511103	     15.48889087	     -9.96671083	     72.60649967	     44.01831967	     89.30549759	     -6.65267741	     11.32551684	      9.79490078	     -8.43107235	     50.64704879	     52.52200607	     68.77896053	     -5.26464804	     17.68095933
      0.01666667	      2.53030648	     -2.33134754	    102.37171661	      0.42825003	      0.75943561	      1.07173301	      2.94698954	      2.71713698	     -9.47544752	     12.37432046	      0.21597263	     30.90434075	     -1.40310042	      0.00000000	      7.84376347	     -6.38481467	      3.93067006	     16.41574312	      0.28650877	     37.58505816	     16.76925623	      0.00000000	      0.23652498	      0.16116462	      0.19260579	      0.43925054	      0.21434894	      0.20464365	      0.38858689	      0.39185565	      0.20464365	      0.27032440	      0.39185565	      0.16853007	      0.21963710	      0.32864688	      0.15649221	      0.13515037	      0.24964399	      0.14445434	      1.68947429	      1.82312636	      1.07121563	      0.00000000	      0.00000000	     28.09308859	     -2.37992324	     -3.13810562	     12.98324453	     -9.78598542	     67.63425908	     42.40407034	     88.86601441	     -7.86190383	      7.09286114	     11.02231909	     -7.55000365	     54.12254609	     49.89239624	     70.48804517	     -5.61161340	     15.02713335
      0.03333333	      2.65605719	     -2.11483193	    103.01137547	      0.42647747	      0.75949158	      1.07033050	      2.51382557	      2.56998988	    -12.83634205	     12.42924487	      0.21693125	     31.75093738	      2.33204482	      0.00000000	      7.29403999	     -6.37914979	      4.95210509	     16.03993769	      0.27994972	     37.14827971	     16.06826420	      0.00000000	      0.23074741	      0.19147246	      0.20558249	      0.42852102	      0.25465837	      0.21843139	      0.37909492	      0.46554614	      0.21843139	      0.26372122	      0.46554614	      0.17988468	      0.21427205	      0.39045064	      0.16703577	      0.13184907	      0.29659084	      0.15418687	      1.64820569	      2.16597475	      1.14338813	      0.00000000	      0.00000000	     28.06351219	     -2.91952525	     -3.43556018	     10.65252916	     -9.19407787	     61.92360349	     40.77624994	     87.80304120	     -5.72285137	      5.66035181	     11.85088691	     -6.70352881	     57.20103959	     47.60419116	     70.54942845	     -6.47858211	     12.50483485
      0.05000000	      2.78497754	     -1.88069652	    103.62447218	      0.42510924	      0.75965232	      1.06939409	      2.11560930	      2.66091363	    -14.24505865	     12.33905379	      0.21535712	     32.03524480	      3.47473705	      0.00000000	      6.85955917	     -6.44218329	      5.74154646	     15.72232821	      0.27440639	     36.89346781	     15.72739054	      0.00000000	      0.22175109	      0.22190268	      0.10992789	      0.41181394	      0.29513056	      0.11679838	      0.36431486	      0.53953416	      0.11679838	      0.25343932	      0.53953416	      0.09618690	      0.20591806	      0.45250394	      0.08931641	      0.12670857	      0.34372724	      0.08244592	      1.58394584	      2.51020744	      0.61138593	      0.00000000	      0.00000000	     28.02202905	     -3.19634992	     -3.23047151	      9.47091027	     -8.38024049	     59.35108606	     38.65295948	     83.01696921	     -3.89605425	      4.52362835	     11.85901979	     -5.95677775	     58.19186363	     45.78314080	     71.86888134	     -6.88902180	     10.58187389
      0.06666667	      2.84465107	     -1.57258513	    104.15848441	      0.42359587	      0.76000723	      1.06898960	      1.67447366	      2.44557143	    -17.61962762	     12.37145384	      0.21592260	     32.77585015	      7.52278166	      0.00000000	      6.37854279	     -6.41788827	      6.68099057	     15.35923910	      0.26806929	     36.71004408	     15.15603614	      0.00000000	      0.19779432	      0.25238729	     -0.06679553	      0.36732382	      0.33567509	     -0.07097025	      0.32495628	      0.61365445	     -0.07097025	      0.22605912	      0.61365445	     -0.05844609	      0.18367180	      0.51466815	     -0.05427137	      0.11301967	      0.39094791	     -0.05009665	      1.41282502	      2.85505546	     -0.37149669	      0.00000000	      0.00000000	     27.96850815	     -3.21681709	     -2.55673186	      9.86998615	     -7.99369846	     62.66893881	     36.61860069	     68.99004878	     -3.97715307	      3.73209667	     11.44385329	     -5.35504636	     57.91572825	     44.48655326	     73.14633042	     -7.15036532	      9.48074871
      0.08333333	      2.88403676	     -1.26354592	    104.53816383	      0.42261460	      0.76044783	      1.06843914	      1.18022082	      2.57958160	    -17.96789635	     12.02530005	      0.20988108	     32.79709686	      7.78237792	      0.00000000	      5.90281145	     -6.48971482	      7.01618979	     14.98515414	      0.26154028	     36.66253749	     15.28855440	      0.00000000	      0.17380555	      0.27841039	     -0.18988645	      0.32277429	      0.37028582	     -0.20175435	      0.28554514	      0.67692702	     -0.20175435	      0.19864237	      0.67692702	     -0.16615064	      0.16139584	      0.56773447	     -0.15428274	      0.09931249	      0.43125769	     -0.14241484	      1.24147568	      3.14943401	     -1.05609147	      0.00000000	      0.00000000	     27.91574468	     -3.21900320	     -1.85166727	      9.14430404	     -7.37499366	     61.10299591	     35.20607592	     64.01593055	     -2.73091639	      4.80404651	     11.01373553	     -4.84775767	     57.59359635	     43.43904507	     73.98381489	     -7.39396938	      8.38782089
      0.10000000	      2.98380704	     -1.09948672	    104.77267440	      0.42184079	      0.76081511	      1.06869687	      1.02728486	      2.56089149	    -19.41131946	     12.02269495	      0.20983561	     33.09024155	      9.61164201	      0.00000000	      5.75552598	     -6.56340654	      7.32859606	     14.88426819	      0.25977949	     36.69326470	     15.13586220	      0.00000000	      0.16677696	      0.30282350	     -0.37806462	      0.30972149	      0.40275525	     -0.40169366	      0.27399787	      0.73628505	     -0.40169366	      0.19060939	      0.73628505	     -0.33080654	      0.15486909	      0.61751768	     -0.30717750	      0.09529635	      0.46907360	     -0.28354846	      1.19127115	      3.42559996	     -2.10268198	      0.00000000	      0.00000000	     27.84649322	     -2.90098889	     -1.36805519	     11.02147999	     -7.59977756	     69.65676654	     34.39545989	     48.19672444	     -4.97297829	      3.43164004	     10.43564730	     -4.47915957	     55.90978301	     42.78916452	     76.20843604	     -6.31771375	      8.55882381
      0.11666667	      2.99720019	     -0.91746704	    104.66894461	      0.42166918	      0.76139296	      1.06844357	      0.77894951	      2.71049671	    -18.56286889	     11.74761023	      0.20503448	     32.90969842	      8.89143526	      0.00000000	      5.34157789	     -6.53426502	      8.03809947	     14.50828690	      0.25321738	     36.55945440	     14.04961402	      0.00000000	      0.15645149	      0.31630186	     -0.41885650	      0.29054606	      0.42068148	     -0.44503503	      0.25703415	      0.76905635	     -0.44503503	      0.17880841	      0.76905635	     -0.36649944	      0.14528085	      0.64500276	     -0.34032091	      0.08939638	      0.48995158	     -0.31414237	      1.11751735	      3.57806993	     -2.32955419	      0.00000000	      0.00000000	     27.78329296	     -2.74194269	     -1.22741912	     10.95602834	     -7.65493879	     69.26429760	     34.20147753	     47.30036946	     -5.18166323	      3.97351520	     10.52435809	     -4.45894208	     56.40622446	     42.53417275	     74.93382246	     -6.06465630	      8.27486818
